<svg xmlns="http://www.w3.org/2000/svg" xmlns:xlink="http://www.w3.org/1999/xlink" width="2000" zoomAndPan="magnify" viewBox="0 0 1500 1499.999933" height="2000" preserveAspectRatio="xMidYMid meet" version="1.0"><defs><g/><clipPath id="53e3b01da4"><path d="M 59.449219 56.585938 L 1438.828125 56.585938 L 1438.828125 1445 L 59.449219 1445 Z M 59.449219 56.585938 " clip-rule="nonzero"/></clipPath><clipPath id="838010a06d"><path d="M 129.949219 56.585938 L 1368.328125 56.585938 C 1407.261719 56.585938 1438.828125 88.148438 1438.828125 127.085938 L 1438.828125 1374.414062 C 1438.828125 1413.351562 1407.261719 1444.914062 1368.328125 1444.914062 L 129.949219 1444.914062 C 91.015625 1444.914062 59.449219 1413.351562 59.449219 1374.414062 L 59.449219 127.085938 C 59.449219 88.148438 91.015625 56.585938 129.949219 56.585938 Z M 129.949219 56.585938 " clip-rule="nonzero"/></clipPath><clipPath id="43dceb1d1e"><path d="M 0.449219 0.585938 L 1379.828125 0.585938 L 1379.828125 1389 L 0.449219 1389 Z M 0.449219 0.585938 " clip-rule="nonzero"/></clipPath><clipPath id="46cff8664b"><path d="M 70.949219 0.585938 L 1309.328125 0.585938 C 1348.261719 0.585938 1379.828125 32.148438 1379.828125 71.085938 L 1379.828125 1318.414062 C 1379.828125 1357.351562 1348.261719 1388.914062 1309.328125 1388.914062 L 70.949219 1388.914062 C 32.015625 1388.914062 0.449219 1357.351562 0.449219 1318.414062 L 0.449219 71.085938 C 0.449219 32.148438 32.015625 0.585938 70.949219 0.585938 Z M 70.949219 0.585938 " clip-rule="nonzero"/></clipPath><clipPath id="a5974b1e72"><rect x="0" width="1380" y="0" height="1389"/></clipPath><clipPath id="2f7cfb43f2"><path d="M 59.453125 56.585938 L 1438.699219 56.585938 L 1438.699219 1444.832031 L 59.453125 1444.832031 Z M 59.453125 56.585938 " clip-rule="nonzero"/></clipPath><clipPath id="5afe775091"><path d="M 129.953125 56.585938 L 1368.316406 56.585938 C 1407.253906 56.585938 1438.816406 88.148438 1438.816406 127.082031 L 1438.816406 1374.40625 C 1438.816406 1413.339844 1407.253906 1444.902344 1368.316406 1444.902344 L 129.953125 1444.902344 C 91.015625 1444.902344 59.453125 1413.339844 59.453125 1374.40625 L 59.453125 127.082031 C 59.453125 88.148438 91.015625 56.585938 129.953125 56.585938 Z M 129.953125 56.585938 " clip-rule="nonzero"/></clipPath><clipPath id="9864ab504e"><path d="M 62.449219 58.855469 L 1435.699219 58.855469 L 1435.699219 1441.101562 L 62.449219 1441.101562 Z M 62.449219 58.855469 " clip-rule="nonzero"/></clipPath><clipPath id="0c0c96539c"><path d="M 132.949219 58.855469 L 1365.320312 58.855469 C 1404.253906 58.855469 1435.816406 90.417969 1435.816406 129.355469 L 1435.816406 1370.636719 C 1435.816406 1409.574219 1404.253906 1441.136719 1365.320312 1441.136719 L 132.949219 1441.136719 C 94.015625 1441.136719 62.449219 1409.574219 62.449219 1370.636719 L 62.449219 129.355469 C 62.449219 90.417969 94.015625 58.855469 132.949219 58.855469 Z M 132.949219 58.855469 " clip-rule="nonzero"/></clipPath><clipPath id="1e83022719"><path d="M 374.046875 376 L 1124 376 L 1124 1124.90625 L 374.046875 1124.90625 Z M 374.046875 376 " clip-rule="nonzero"/></clipPath><clipPath id="fbe4c048dc"><path d="M 961 374.90625 L 1085 374.90625 L 1085 499 L 961 499 Z M 961 374.90625 " clip-rule="nonzero"/></clipPath><clipPath id="c2873cd7a5"><rect x="0" width="307" y="0" height="1277"/></clipPath><clipPath id="fc4a5e8d35"><rect x="0" width="307" y="0" height="1277"/></clipPath></defs><g clip-path="url(#53e3b01da4)"><g clip-path="url(#838010a06d)"><g transform="matrix(1, 0, 0, 1, 59, 56)"><g clip-path="url(#a5974b1e72)"><g clip-path="url(#43dceb1d1e)"><g clip-path="url(#46cff8664b)"><path fill="#ffffff" d="M 0.449219 0.585938 L 1379.828125 0.585938 L 1379.828125 1390.738281 L 0.449219 1390.738281 Z M 0.449219 0.585938 " fill-opacity="1" fill-rule="nonzero"/></g></g></g></g></g></g><g clip-path="url(#2f7cfb43f2)"><g clip-path="url(#5afe775091)"><path stroke-linecap="butt" transform="matrix(0.75, 0, 0, 0.75, 59.451163, 56.584002)" fill="none" stroke-linejoin="miter" d="M 94.002631 0.00258023 L 1745.15392 0.00258023 C 1797.070595 0.00258023 1839.153934 42.08592 1839.153934 93.997386 L 1839.153934 1757.096594 C 1839.153934 1809.00806 1797.070595 1851.0914 1745.15392 1851.0914 L 94.002631 1851.0914 C 42.085956 1851.0914 0.00261649 1809.00806 0.00261649 1757.096594 L 0.00261649 93.997386 C 0.00261649 42.08592 42.085956 0.00258023 94.002631 0.00258023 Z M 94.002631 0.00258023 " stroke="#000000" stroke-width="74" stroke-opacity="1" stroke-miterlimit="4"/></g></g><g clip-path="url(#9864ab504e)"><g clip-path="url(#0c0c96539c)"><path stroke-linecap="butt" transform="matrix(0.75, 0, 0, 0.75, 62.451165, 58.853483)" fill="none" stroke-linejoin="miter" d="M 93.997419 0.00264776 L 1737.159124 0.00264776 C 1789.070591 0.00264776 1831.15393 42.085987 1831.15393 94.002662 L 1831.15393 1749.044577 C 1831.15393 1800.961251 1789.070591 1843.044591 1737.159124 1843.044591 L 93.997419 1843.044591 C 42.085953 1843.044591 -0.00259469 1800.961251 -0.00259469 1749.044577 L -0.00259469 94.002662 C -0.00259469 42.085987 42.085953 0.00264776 93.997419 0.00264776 Z M 93.997419 0.00264776 " stroke="#2563eb" stroke-width="48" stroke-opacity="1" stroke-miterlimit="4"/></g></g><path fill="#2563eb" d="M 1118.328125 750.90625 C 1118.328125 954.859375 952.957031 1120.230469 748.972656 1120.230469 C 544.984375 1120.230469 379.613281 954.859375 379.613281 750.90625 C 379.628906 546.921875 544.984375 381.550781 748.972656 381.550781 C 952.957031 381.550781 1118.328125 546.921875 1118.328125 750.90625 " fill-opacity="1" fill-rule="nonzero"/><g clip-path="url(#1e83022719)"><path stroke-linecap="round" transform="matrix(0.325597, 0, 0, -0.325597, 56.751943, 1442.21436)" fill="none" stroke-linejoin="round" d="M 3260.398005 2123.200972 C 3260.398005 1496.803759 2752.497024 988.902778 2126.003834 988.902778 C 1499.498646 988.878784 991.597665 1496.803759 991.597665 2123.200972 C 991.645654 2749.694163 1499.498646 3257.595144 2126.003834 3257.595144 C 2752.497024 3257.595144 3260.398005 2749.70616 3260.398005 2123.200972 Z M 3260.398005 2123.200972 " stroke="#000000" stroke-width="30" stroke-opacity="1" stroke-miterlimit="10"/></g><path fill="#2563eb" d="M 1075.023438 750.90625 C 1075.023438 930.960938 929.058594 1076.960938 748.972656 1076.960938 C 568.917969 1076.960938 422.917969 930.960938 422.917969 750.90625 C 422.917969 570.820312 568.917969 424.855469 748.972656 424.855469 C 929.058594 424.855469 1075.023438 570.820312 1075.023438 750.90625 " fill-opacity="1" fill-rule="nonzero"/><path stroke-linecap="round" transform="matrix(0.325597, 0, 0, -0.325597, 56.751943, 1442.21436)" fill="none" stroke-linejoin="round" d="M 3127.397172 2123.200972 C 3127.397172 1570.202559 2679.098224 1121.795637 2126.003834 1121.795637 C 1573.005421 1121.795637 1124.598498 1570.202559 1124.598498 2123.200972 C 1124.598498 2676.295363 1573.005421 3124.59431 2126.003834 3124.59431 C 2679.098224 3124.59431 3127.397172 2676.295363 3127.397172 2123.200972 Z M 3127.397172 2123.200972 " stroke="#000000" stroke-width="30" stroke-opacity="1" stroke-miterlimit="10"/><path fill="#ffffff" d="M 649.046875 721.375 L 817.085938 431.984375 C 795.109375 427.328125 772.347656 424.855469 748.972656 424.855469 C 664.640625 424.855469 587.832031 456.859375 529.941406 509.378906 L 649.046875 721.375 " fill-opacity="1" fill-rule="nonzero"/><path stroke-linecap="round" transform="matrix(0.325597, 0, 0, -0.325597, 56.751943, 1442.21436)" fill="none" stroke-linejoin="round" d="M 1819.103751 2213.899718 L 2335.198812 3102.699441 C 2267.702629 3117.00009 2197.795011 3124.59431 2126.003834 3124.59431 C 1866.996528 3124.59431 1631.095808 3026.301344 1453.297473 2864.999143 Z M 1819.103751 2213.899718 " stroke="#000000" stroke-width="30" stroke-opacity="1" stroke-miterlimit="10"/><path fill="#ffffff" d="M 509.65625 529.5 C 455.835938 587.621094 422.917969 665.40625 422.917969 750.90625 C 422.917969 775.230469 425.621094 798.898438 430.667969 821.722656 L 672.910156 821.5625 L 509.65625 529.5 " fill-opacity="1" fill-rule="nonzero"/><path stroke-linecap="round" transform="matrix(0.325597, 0, 0, -0.325597, 56.751943, 1442.21436)" fill="none" stroke-linejoin="round" d="M 1390.996072 2803.201624 C 1225.698807 2624.695454 1124.598498 2385.795437 1124.598498 2123.200972 C 1124.598498 2048.494479 1132.900553 1975.803513 1148.400921 1905.70394 L 1892.394577 1906.195824 Z M 1390.996072 2803.201624 " stroke="#000000" stroke-width="30" stroke-opacity="1" stroke-miterlimit="10"/><path fill="#ffffff" d="M 846.617188 439.734375 L 730.152344 630.761719 L 1052.167969 630.761719 C 1016.15625 539.953125 940.554688 469.167969 846.617188 439.734375 " fill-opacity="1" fill-rule="nonzero"/><path stroke-linecap="round" transform="matrix(0.325597, 0, 0, -0.325597, 56.751943, 1442.21436)" fill="none" stroke-linejoin="round" d="M 2425.897558 3078.897019 L 2068.201379 2492.198503 L 3057.201621 2492.198503 C 2946.599539 2771.097147 2714.393953 2988.498203 2425.897558 3078.897019 Z M 2425.897558 3078.897019 " stroke="#000000" stroke-width="30" stroke-opacity="1" stroke-miterlimit="10"/><path fill="#ffffff" d="M 830.339844 659.382812 L 998.117188 961.210938 C 1046.078125 904.425781 1075.023438 831.035156 1075.023438 750.90625 C 1075.023438 720.855469 1070.921875 691.746094 1063.335938 664.136719 C 925.738281 663.90625 830.339844 659.382812 830.339844 659.382812 " fill-opacity="1" fill-rule="nonzero"/><path stroke-linecap="round" transform="matrix(0.325597, 0, 0, -0.325597, 56.751943, 1442.21436)" fill="none" stroke-linejoin="round" d="M 2375.905273 2404.295102 L 2891.196522 1477.296331 C 3038.498004 1651.699462 3127.397172 1877.102642 3127.397172 2123.200972 C 3127.397172 2215.495344 3114.800124 2304.898394 3091.501584 2389.694523 C 2668.900614 2390.402358 2375.905273 2404.295102 2375.905273 2404.295102 Z M 2375.905273 2404.295102 " stroke="#000000" stroke-width="30" stroke-opacity="1" stroke-miterlimit="10"/><path fill="#ffffff" d="M 748.972656 1076.960938 C 837.109375 1076.960938 917.042969 1041.957031 975.75 985.140625 L 858.957031 773.859375 C 858.957031 773.859375 755.90625 953.558594 701.238281 1073.476562 C 716.800781 1075.753906 732.757812 1076.960938 748.972656 1076.960938 " fill-opacity="1" fill-rule="nonzero"/><path stroke-linecap="round" transform="matrix(0.325597, 0, 0, -0.325597, 56.751943, 1442.21436)" fill="none" stroke-linejoin="round" d="M 2126.003834 1121.795637 C 2396.696401 1121.795637 2642.194872 1229.302444 2822.50062 1403.801553 L 2463.796677 2052.705492 C 2463.796677 2052.705492 2147.298844 1500.798823 1979.398189 1132.497129 C 2027.194988 1125.502768 2076.203504 1121.795637 2126.003834 1121.795637 Z M 2126.003834 1121.795637 " stroke="#000000" stroke-width="30" stroke-opacity="1" stroke-miterlimit="10"/><path fill="#ffffff" d="M 668.710938 1066.996094 L 787.390625 854.96875 L 437.570312 847.871094 C 471.074219 955.445312 558.757812 1039.15625 668.710938 1066.996094 " fill-opacity="1" fill-rule="nonzero"/><path stroke-linecap="round" transform="matrix(0.325597, 0, 0, -0.325597, 56.751943, 1442.21436)" fill="none" stroke-linejoin="round" d="M 1879.497599 1152.400465 L 2243.996184 1803.595867 L 1169.599953 1825.394759 C 1272.49984 1495.004181 1541.800733 1237.904429 1879.497599 1152.400465 Z M 1879.497599 1152.400465 " stroke="#000000" stroke-width="30" stroke-opacity="1" stroke-miterlimit="10"/><g clip-path="url(#fbe4c048dc)"><path fill="#2563eb" d="M 1022.863281 498.632812 C 1022.148438 442.207031 961 436.738281 961 436.738281 C 961 436.738281 1024.328125 438.953125 1022.863281 374.863281 C 1023.972656 438.5625 1084.757812 436.738281 1084.757812 436.738281 C 1084.757812 436.738281 1022.863281 442.207031 1022.863281 498.632812 " fill-opacity="1" fill-rule="nonzero"/></g><path fill="#2563eb" d="M 1074.570312 519.667969 C 1074.144531 488.703125 1040.574219 485.707031 1040.574219 485.707031 C 1040.574219 485.707031 1075.351562 486.914062 1074.570312 451.714844 C 1075.15625 486.683594 1108.527344 485.707031 1108.527344 485.707031 C 1108.527344 485.707031 1074.570312 488.703125 1074.570312 519.667969 " fill-opacity="1" fill-rule="nonzero"/><path fill="#2563eb" d="M 1073.558594 428.597656 C 1073.332031 411.113281 1054.347656 409.386719 1054.347656 409.386719 C 1054.347656 409.386719 1074.015625 410.070312 1073.558594 390.175781 C 1073.886719 409.972656 1092.769531 409.386719 1092.769531 409.386719 C 1092.769531 409.386719 1073.558594 411.113281 1073.558594 428.597656 " fill-opacity="1" fill-rule="nonzero"/><g transform="matrix(1, 0, 0, 1, 93, 76)"><g clip-path="url(#c2873cd7a5)"><g fill="#000000" fill-opacity="1"><g transform="translate(1.530028, 1001.291276)"><g><path d="M 207.273438 101.101562 C 166.449219 49.765625 133.601562 -7.964844 108.722656 -72.09375 C 83.769531 -136.414062 71.292969 -214.273438 71.292969 -305.664062 C 71.292969 -397.367188 83.769531 -475.300781 108.722656 -539.472656 C 133.601562 -603.4375 166.445312 -661.238281 207.257812 -712.871094 L 209.894531 -716.210938 L 272.210938 -716.210938 L 276.035156 -696.125 L 274.265625 -693.230469 C 251.914062 -656.679688 232.964844 -620.222656 217.421875 -583.855469 C 201.945312 -547.640625 189.460938 -506.410156 179.972656 -460.164062 C 170.480469 -413.921875 165.738281 -362.421875 165.738281 -305.664062 C 165.738281 -248.910156 170.480469 -197.492188 179.96875 -151.402344 C 189.460938 -105.304688 201.945312 -64.148438 217.421875 -27.933594 C 232.964844 8.433594 251.914062 44.894531 274.265625 81.441406 L 276.035156 84.335938 L 272.210938 104.421875 L 209.910156 104.421875 Z M 221.027344 90.167969 L 214.148438 95.636719 L 214.148438 86.847656 L 264.941406 86.847656 L 264.941406 95.636719 L 256.308594 93.992188 L 258.140625 84.382812 L 266.769531 86.027344 L 259.277344 90.609375 C 236.480469 53.335938 217.144531 16.121094 201.265625 -21.027344 C 185.324219 -58.328125 172.488281 -100.605469 162.757812 -147.859375 C 153.03125 -195.117188 148.164062 -247.71875 148.164062 -305.664062 C 148.164062 -363.609375 153.03125 -416.289062 162.757812 -463.695312 C 172.488281 -511.101562 185.324219 -553.457031 201.265625 -590.761719 C 217.144531 -627.910156 236.480469 -665.125 259.277344 -702.398438 L 266.769531 -697.8125 L 258.140625 -696.171875 L 256.308594 -705.78125 L 264.941406 -707.421875 L 264.941406 -698.636719 L 214.148438 -698.636719 L 214.148438 -707.421875 L 221.042969 -701.976562 C 181.320312 -651.722656 149.339844 -595.429688 125.101562 -533.101562 C 100.941406 -470.980469 88.863281 -395.167969 88.863281 -305.664062 C 88.863281 -216.464844 100.941406 -140.726562 125.101562 -78.449219 C 149.339844 -15.980469 181.3125 40.222656 221.027344 90.167969 Z M 221.027344 90.167969 "/></g></g></g><g fill="#2563eb" fill-opacity="1"><g transform="translate(1.530028, 1001.291276)"><g><path d="M 214.140625 95.640625 C 173.878906 44.992188 141.46875 -11.972656 116.90625 -75.265625 C 92.351562 -138.566406 80.078125 -215.363281 80.078125 -305.65625 C 80.078125 -396.257812 92.351562 -473.132812 116.90625 -536.28125 C 141.46875 -599.425781 173.878906 -656.472656 214.140625 -707.421875 L 264.9375 -707.421875 L 266.765625 -697.8125 C 244.191406 -660.894531 225.050781 -624.054688 209.34375 -587.296875 C 193.632812 -550.546875 180.972656 -508.753906 171.359375 -461.921875 C 161.753906 -415.097656 156.953125 -363.007812 156.953125 -305.65625 C 156.953125 -248.3125 161.753906 -196.300781 171.359375 -149.625 C 180.972656 -102.957031 193.632812 -61.242188 209.34375 -24.484375 C 225.050781 12.273438 244.191406 49.113281 266.765625 86.03125 L 264.9375 95.640625 Z M 214.140625 95.640625 "/></g></g></g></g></g><g transform="matrix(1, 0, 0, 1, 1085, 58)"><g clip-path="url(#fc4a5e8d35)"><g fill="#002576" fill-opacity="1"><g transform="translate(1.075087, 1001.199871)"><g><path d="M 30.484375 81.441406 C 52.835938 44.894531 71.785156 8.433594 87.328125 -27.933594 C 102.804688 -64.148438 115.289062 -105.378906 124.777344 -151.625 C 134.269531 -197.867188 139.015625 -249.214844 139.015625 -305.664062 C 139.015625 -362.417969 134.269531 -413.839844 124.78125 -459.929688 C 115.289062 -506.03125 102.804688 -547.265625 87.320312 -583.636719 C 71.78125 -620.15625 52.835938 -656.683594 30.484375 -693.230469 L 28.714844 -696.125 L 32.539062 -716.210938 L 94.382812 -716.210938 L 97.019531 -712.890625 C 137.84375 -661.554688 170.691406 -603.824219 195.570312 -539.695312 C 220.523438 -475.371094 233 -397.363281 233 -305.664062 C 233 -214.273438 220.523438 -136.414062 195.570312 -72.09375 C 170.691406 -7.964844 137.84375 49.765625 97.019531 101.101562 L 94.382812 104.421875 L 32.539062 104.421875 L 28.714844 84.335938 Z M 45.472656 90.609375 L 37.980469 86.027344 L 46.609375 84.382812 L 48.441406 93.992188 L 39.808594 95.636719 L 39.808594 86.847656 L 90.144531 86.847656 L 90.144531 95.636719 L 83.265625 90.167969 C 122.980469 40.222656 154.953125 -15.980469 179.191406 -78.449219 C 203.351562 -140.726562 215.429688 -216.464844 215.429688 -305.664062 C 215.429688 -395.171875 203.351562 -471.0625 179.191406 -533.339844 C 154.953125 -595.808594 122.980469 -652.011719 83.265625 -701.957031 L 90.144531 -707.421875 L 90.144531 -698.636719 L 39.808594 -698.636719 L 39.808594 -707.421875 L 48.441406 -705.78125 L 46.609375 -696.171875 L 37.980469 -697.8125 L 45.472656 -702.398438 C 68.273438 -665.121094 87.609375 -627.828125 103.488281 -590.519531 C 119.429688 -553.070312 132.261719 -510.71875 141.992188 -463.472656 C 151.71875 -416.214844 156.585938 -363.613281 156.585938 -305.664062 C 156.585938 -248.023438 151.71875 -195.5 141.992188 -148.09375 C 132.261719 -100.6875 119.429688 -58.332031 103.484375 -21.027344 C 87.605469 16.121094 68.269531 53.335938 45.472656 90.609375 Z M 45.472656 90.609375 "/></g></g></g><g fill="#2563eb" fill-opacity="1"><g transform="translate(1.075087, 1001.199871)"><g><path d="M 37.984375 86.03125 C 60.554688 49.113281 79.695312 12.273438 95.40625 -24.484375 C 111.113281 -61.242188 123.769531 -103.035156 133.375 -149.859375 C 142.988281 -196.679688 147.796875 -248.613281 147.796875 -305.65625 C 147.796875 -363.007812 142.988281 -415.019531 133.375 -461.6875 C 123.769531 -508.363281 111.113281 -550.15625 95.40625 -587.0625 C 79.695312 -623.976562 60.554688 -660.894531 37.984375 -697.8125 L 39.8125 -707.421875 L 90.140625 -707.421875 C 130.410156 -656.785156 162.820312 -599.816406 187.375 -536.515625 C 211.9375 -473.210938 224.21875 -396.257812 224.21875 -305.65625 C 224.21875 -215.363281 211.9375 -138.566406 187.375 -75.265625 C 162.820312 -11.972656 130.410156 44.992188 90.140625 95.640625 L 39.8125 95.640625 Z M 37.984375 86.03125 "/></g></g></g></g></g></svg>